<?xml version="1.0" encoding="utf-8"?>
<!-- Generator: Adobe Illustrator 23.0.2, SVG Export Plug-In . SVG Version: 6.00 Build 0)  -->
<svg version="1.1" id="Capa_1" xmlns="http://www.w3.org/2000/svg" xmlns:xlink="http://www.w3.org/1999/xlink" x="0px" y="0px"
	 viewBox="0 0 1183 340" style="enable-background:new 0 0 1183 340;" xml:space="preserve">
<style type="text/css">
	.st0{fill:#FF8700;}
	.st1{fill:#224199;}
	.st2{fill:#175B59;}
</style>
<g>
	<path class="st0" d="M439.6,177.73c-0.65-10.82,1.05-23.92-1.24-36.89c-1.85-10.45-6.52-18.07-12.98-23.89
		c-2.52-2.27-5.55-3.98-8.53-4.84c-13.28-3.87-25.31-0.55-35.42,12c-1,1.24-1.54,1.07-2.27,0c-5.73-8.37-13.06-12.63-21.4-13.39
		c-13.52-1.23-23.49,5.28-30.35,19.42c-3.24,6.67-4.45,14.48-4.48,22.43c-0.06,19.7,0.04,39.4-0.08,59.1
		c-0.02,2.99,0.89,3.4,2.75,3.36c4.8-0.1,9.61-0.17,14.41,0.04c2.4,0.1,3.2-0.74,3.17-4.13c-0.14-18.32-0.12-36.64-0.03-54.96
		c0.02-4.61,1-8.75,2.83-13.04c3.74-8.8,16.89-9.69,21.64-1.05c2.45,4.45,3.18,8.95,3.19,14.02c0.02,18.18,0.1,36.37-0.04,54.55
		c-0.03,3.75,0.91,4.75,3.58,4.62c4.59-0.23,9.2-0.25,13.78,0.02c2.66,0.16,3.33-1.04,3.31-4.43c-0.12-17.91-0.1-35.82-0.01-53.72
		c0.02-4.13,0.76-7.97,1.96-12.04c3.29-11.21,16.83-11.12,21.64-4.52c3.34,4.58,4.24,9.83,4.26,15.63
		c0.06,18.46,0.05,36.92-0.01,55.38c-0.01,2.54,0.36,3.74,2.55,3.66c5.11-0.17,10.24-0.13,15.35,0.04c1.97,0.07,2.47-0.86,2.45-3.33
		C439.55,201.14,439.6,190.53,439.6,177.73z"/>
	<path class="st0" d="M666.14,214.98c8.45-0.13,16.78-1.25,24.74-5.62c9.24-5.07,16.28-13.22,20.4-25.19
		c3.26-9.46,3.66-19.56,2.57-29.87c-1.17-11.11-5.28-20.24-11.44-27.3c-8.31-9.53-18.58-13.61-29.46-14.48
		c-13.66-1.1-27.35-0.21-41.02-0.47c-2.37-0.05-2.62,1.64-2.61,4.2c0.06,15.7,0.03,31.4,0.03,47.1c0,15.56,0.13,31.13-0.08,46.68
		c-0.06,4.26,1.17,5.07,3.98,5.03C644.21,214.94,655.17,215.15,666.14,214.98z M652.61,194.42c-2.04,0.06-2.11-1.4-2.1-3.37
		c0.03-9.22,0.01-18.44,0.01-27.65c0-9.08,0.02-18.16-0.02-27.24c-0.01-2.01,0.07-3.44,2.1-3.36c6.46,0.28,12.97-0.24,19.37,0.72
		c8.14,1.21,15.3,5.66,18.71,16.35c3.75,11.79,3.32,23.51-3,33.67c-4.4,7.07-10.83,9.87-17.54,10.56
		C664.32,194.7,658.45,194.23,652.61,194.42z"/>
	<path class="st1" d="M987.49,128.92c-9.98-12.6-21.98-18.38-36.26-18.16c-6.64-0.28-13.58,1.46-20.21,5
		c-13.27,7.08-21.77,19.99-24.58,38.38c-2.68,17.55,1.41,32.86,10.99,45.69c3.97,5.32,8.62,9.15,13.77,11.76
		c13.26,6.74,26.75,7.01,40.05,0.39c14.05-6.99,23.04-20.25,25.78-39.9c1.95-13.99-0.61-26.96-6.88-38.59
		C989.32,131.92,988.53,130.23,987.49,128.92z M951.94,194.7c-13.87,0.16-24.77-12.34-24.86-30.92
		c-0.09-18.51,10.62-31.55,24.43-31.51c13.91-0.32,24.34,12.66,24.61,30.34C976.42,181.99,965.85,194.54,951.94,194.7z"/>
	<path class="st0" d="M811.57,147.19c-3.18-11.43-8.14-20.37-15.91-26.5c-16.19-12.76-33.08-13.23-50.24-3.84
		c-10.1,5.52-17.59,15.47-21.02,28.83c-5.37,20.93-2.29,40.03,10.46,55.56c7.14,8.7,15.73,13.18,25.17,14.59
		c12.68,1.9,24.86-0.1,35.91-9.6c7.54-6.48,13.09-14.77,15.4-26.44c-0.02-1.61,0.03-3.17,1.57-3.59l0,0
		C813.92,166.42,814.3,157,811.57,147.19z M767.68,194.62c-13.79,0.16-24.45-12.54-24.23-31.36c0.22-19.02,10.18-30.74,24.29-31.07
		c14.07-0.33,24.61,13.19,24.76,31.3C792.65,181.27,781.39,195.52,767.68,194.62z"/>
	<path class="st0" d="M528.53,147.1c0.06,0,0.12,0,0.18,0c0-10.47-0.07-20.94,0.05-31.4c0.03-2.9-0.65-3.83-2.84-3.69
		c-3.65,0.22-7.31,0.07-10.96,0.07c-7.05,0-7.05-0.01-7.05,9.26c0,16.53,0.01,33.06-0.04,49.59c-0.02,5.76-1.05,11.24-4.22,15.42
		c-4.14,5.45-9.32,6.87-15.1,6.93c-10.93,0.1-17.37-10.62-17.56-23.76c-0.26-17.9-0.11-35.81-0.03-53.72
		c0.01-2.74-0.41-3.91-2.72-3.8c-4.9,0.23-9.82,0.26-14.72,0.01c-2.46-0.13-2.94,1.07-2.92,4.03c0.09,18.59,0.02,37.19,0.07,55.79
		c0.03,9.88,1.62,18.89,6.51,27.04c3.78,6.3,8.34,11.01,13.73,13.45c13.51,6.12,27.19,6.38,40.37-1.96
		c10.45-6.62,15.88-18.44,17.11-33.11C529.21,167.31,528.53,157.16,528.53,147.1z"/>
	<path class="st0" d="M617.4,154.98c0.05-10.44-3.13-19.23-7.57-27.46c-0.65-1.2-1.45-2.3-2.3-3.25
		c-10.08-11.32-21.87-14.94-34.8-13.3c-8.55,1.08-16.54,4.5-22.94,12.13c-6.82,8.14-10.76,18.47-10.72,30.98
		c0.03,8.95,0.01,17.91,0.01,26.86c0,0-0.01,0-0.01,0c0,10.05,0.08,20.11-0.05,30.16c-0.04,2.97,0.4,4.13,2.89,3.99
		c4.9-0.29,9.82-0.27,14.72,0c2.56,0.14,3.37-0.75,3.35-4.28c-0.13-18.45-0.19-36.92,0.03-55.37c0.11-9.29,2.75-16.93,9.74-21.04
		c8.23-4.83,22.94-1.85,25.94,13.52c0.56,2.85,0.67,5.7,0.67,8.58c0.02,18.18,0.06,36.36-0.04,54.54c-0.02,3.03,0.56,4.14,2.95,4.04
		c5.11-0.22,10.24-0.23,15.35-0.03c2.3,0.09,2.8-1.11,2.79-3.87C617.35,192.45,617.32,173.71,617.4,154.98z"/>
	<path class="st1" d="M850.7,112.63c-6.22,1.87-11.89,5.38-16.13,11.73c-5.63,8.42-5.87,23.65-0.87,32.82
		c0.78,1.44,1.81,2.53,2.82,3.72c5.35,6.24,11.88,8.83,18.52,11.32c6.89,2.59,14.2,2.99,20.8,7.15c2.34,1.48,3.59,3.62,3.72,6.92
		c0.14,3.25-1.09,5.72-3.2,7c-2.73,1.66-5.6,2.92-8.7,3c-9.97,0.26-19.15-3.37-27.78-9.7c-3.6-2.64-3.58-2.72-5.75,2.1
		c-1.76,3.91-3.33,7.98-5.31,11.68c-0.86,1.62-0.88,2.03,0.31,3.14c7.44,6.9,15.85,10.34,24.7,11.95
		c12.83,2.33,25.36,1.97,36.75-7.98c9.4-8.21,13.61-25.82,5.34-39.1c-1.31-2.1-2.86-3.83-4.73-5.24
		c-7.38-5.59-15.54-7.67-23.7-10.02c-5.33-1.54-10.94-2.38-15.19-7.85c-2.24-2.89-2.29-6.55-0.16-9.53
		c2.24-3.12,4.98-4.33,8.07-4.71c9.17-1.13,17.51,2.36,25.5,7.86c0.99,0.68,1.77,1.92,2.81-0.15c2.17-4.29,4.42-8.54,6.87-12.56
		c1.75-2.87,1.49-4.41-0.99-6.13c-9.14-6.34-18.82-9.53-28.7-9.33C860.37,110.49,855.5,111.19,850.7,112.63z"/>
	<path class="st1" d="M1063.53,112.18c-8.14,0.16-16.3-0.15-24.42,0.45c-9.04,0.67-17.48,4.19-23.92,13.11
		c-5.31,7.36-8.46,16.25-8.54,26.64c-0.08,9.64-0.02,19.27-0.02,28.91c-0.07,0-0.13,0-0.2,0c0,10.33,0.06,20.66-0.05,30.99
		c-0.02,2.22,0.42,2.86,2.06,2.83c5.74-0.1,11.49-0.1,17.23,0.01c1.65,0.03,2.07-0.61,2.04-2.82c-0.11-10.05,0.07-20.11-0.12-30.16
		c-0.07-3.66,0.73-4.66,3.5-4.6c10.23,0.22,20.46,0.03,30.7,0.13c1.96,0.02,2.82-0.58,2.7-3.44c-0.18-4.26-0.19-8.55,0-12.8
		c0.14-3.18-0.51-4.24-3.08-4.18c-10.33,0.21-20.67,0.09-31.01,0.09c-1.37,0-2.6,0.32-2.65-2.59c-0.24-13.48,4.88-21,15.11-21.42
		c6.68-0.28,13.36-0.2,20.04-0.1c2.38,0.04,3.36-0.92,3.2-4.26c-0.21-4.39-0.22-8.82,0.01-13.21
		C1066.26,112.92,1065.47,112.15,1063.53,112.18z"/>
	<path class="st1" d="M1140.96,112.21c-11.28,0.22-22.56,0.1-33.83,0.1c0-0.01,0-0.01,0-0.02c-11.38,0-22.77,0.11-34.15-0.09
		c-2.46-0.04-3.01,0.93-2.89,3.94c0.18,4.67,0.16,9.37,0,14.04c-0.09,2.73,0.58,3.55,2.66,3.5c6.68-0.17,13.37,0.13,20.05-0.16
		c2.81-0.12,3.69,0.73,3.66,4.65c-0.15,24.24-0.01,48.48-0.14,72.72c-0.02,3.58,0.83,4.37,3.35,4.24c4.9-0.25,9.82-0.27,14.72,0.02
		c2.63,0.16,3.29-0.88,3.27-4.32c-0.12-24.24-0.02-48.48-0.12-72.73c-0.01-3.34,0.27-4.8,3.29-4.63c6.88,0.38,13.78,0.04,20.67,0.16
		c1.9,0.03,2.55-0.68,2.47-3.25c-0.15-4.67-0.18-9.37,0-14.04C1144.11,113.25,1143.57,112.16,1140.96,112.21z"/>
	<path class="st1" d="M662.23,250.75c-3.11-0.37-6.26-0.1-9.38-0.3c-1.7-0.11-2.15,0.81-2.08,2.89c0.1,3.16,0.03,6.33,0.03,10.46
		c0.73,3.24-1.74,9.09,0.98,11.39c2.36,1.99,6.46,0.41,9.79,0.4c0.42,0,0.83-0.04,1.25-0.09c4-0.49,9.09-7.05,8.72-12.56
		C671.13,256.84,667.4,251.36,662.23,250.75z M662.21,271.48c-7.14,1.89-7.21,1.8-7.23-8.64c0-0.55-0.14-1.19,0.02-1.64
		c0.82-2.2-2-6.29,1.81-6.83c6.16-0.88,9.81,1.82,10.3,7.24C667.6,266.84,665.76,270.54,662.21,271.48z"/>
	<path class="st1" d="M836.6,250.67c0.1-2.17-1.55-1.69-2.62-1.8c-1.31-0.13-1.51,0.95-1.48,2.36c0.05,1.9,0.01,3.81,0.01,6.26
		c-1.07-0.53-1.63-0.86-2.22-1.1c-4.82-1.98-10.19,0.86-11.54,6.09c-1.42,5.45,0.39,10.19,4.85,12.73
		c4.45,2.54,9.56,0.31,11.59-4.83C837.72,264.03,836.3,257.25,836.6,250.67z M827.39,272.21c-3.04-0.02-4.96-2.43-4.97-6.23
		c-0.01-3.85,1.83-6.14,4.95-6.19c3.32-0.05,5.2,2.28,5.13,6.35C832.44,269.88,830.46,272.23,827.39,272.21z"/>
	<path class="st1" d="M1024.99,260.81c-1.91-4.39-6.34-6.49-10.43-4.52c-5.03,2.43-6.24,5.58-6.06,10.46
		c0.23,6.27,6.02,10.96,11.18,9c0.8-0.3,1.59-1.08,2.35-1.01c4.73,0.45,4.73,0.51,4.71-5.65
		C1027.29,266.34,1026.18,263.54,1024.99,260.81z M1017.48,272.19c-3.03,0-5-2.51-4.95-6.33c0.04-3.71,1.87-6.02,4.8-6.06
		c3.24-0.05,5.14,2.09,5.22,5.88C1022.64,269.84,1020.81,272.19,1017.48,272.19z"/>
	<path class="st1" d="M546.42,269.6c-0.02-9.26-1.88-12.65-7.59-13.79c-3.86-0.77-7.47,1.29-9.14,5.21
		c-1.47,3.46-1.2,8.22,0.65,11.24c2.17,3.55,6.07,4.96,9.63,3.2c1.14-0.56,1.97-0.66,3.16-0.03c2.23,1.19,3.62,0.22,3.3-3.36
		C546.36,271.26,546.42,270.43,546.42,269.6z M537.57,272.21c-3.35,0.04-5.33-2.3-5.32-6.27c0.01-3.87,1.81-6.07,5.04-6.15
		c2.99-0.08,4.89,2.11,5.02,5.78C542.44,269.41,540.46,272.18,537.57,272.21z"/>
	<path class="st1" d="M724.87,269.53c0-0.96,0.02-1.93-0.01-2.89c-0.13-5.46-1.95-8.92-5.44-10.35c-3.78-1.55-8.78,0.21-10.83,3.81
		c-1.84,3.23-1.89,8.45-0.12,11.61c1.98,3.52,6.75,5.39,10.21,4c1.19-0.48,2.14-1.65,3.64-0.11c0.92,0.94,2.75,0.5,2.56-2.36
		C724.81,272.01,724.88,270.77,724.87,269.53z M716.51,272.21c-3.27,0.06-5.2-2.31-5.17-6.34c0.03-3.91,1.83-6.09,5.01-6.09
		c3.03,0,5.02,2.39,5.08,6.1C721.48,269.6,719.49,272.16,716.51,272.21z"/>
	<path class="st1" d="M997.22,274.19c0-1.52,0-3.03,0-4.55c0-1.65,0.26-3.29-1.78-3.29c-1.73,0-2.19,0.85-2.05,2.91
		c0.07,1.08,0.04,2.18-0.96,2.75c-1.73,0.99-5.63-0.77-6.67-3.11c-1.19-2.67-0.32-6.18,1.91-8.02c1.98-1.63,3.92-1.67,5.86,0.04
		c1.16,1.02,1.93,0.26,2.7-0.83c0.71-1.01,0.38-1.66-0.32-2.32c-3.51-3.3-11.56-3.01-13.55,4.56c-1.96,7.47,2.02,14.16,8.54,13.89
		c1.75-0.07,2.9-0.15,2.54,2.77c-0.24,1.95,0.14,3.05,1.95,3.01c1.94-0.04,1.88-1.51,1.84-3.27
		C997.19,277.22,997.22,275.7,997.22,274.19z"/>
	<path class="st1" d="M971.13,255.67c-4.65-0.11-8.98,4.62-9.08,9.94c-0.1,5.63,4,10.5,8.9,10.57c4.89,0.07,9.26-4.71,9.28-10.16
		C980.26,260.5,976.12,255.8,971.13,255.67z M971.09,272.21c-3.06,0.01-5.07-2.43-5.11-6.2c-0.04-3.79,1.9-6.22,5.01-6.26
		c3.16-0.04,5.01,2.21,5.06,6.13C976.11,269.68,974.13,272.2,971.09,272.21z"/>
	<path class="st1" d="M583.4,255.7c-4.61,0.16-8.97,4.92-9.02,10.21c-0.05,5.07,4.48,10.25,8.97,10.27
		c5.36,0.03,9.14-4.42,9.32-10.41C592.85,260,587.63,255.56,583.4,255.7z M583.65,272.21c-3.25,0.05-5.24-2.4-5.17-6.37
		c0.06-3.87,1.9-6.09,5.05-6.07c3.12,0.02,5.01,2.31,5.05,6.12C588.61,269.63,586.63,272.16,583.65,272.21z"/>
	<path class="st1" d="M501.7,255.73c-5.26-0.09-9.09,4.26-9.04,10.27c0.05,5.98,3.68,10.18,8.81,10.18
		c5.17,0.01,8.73-4.08,8.79-10.11C510.33,259.93,506.93,255.82,501.7,255.73z M501.7,272.21c-2.92,0.07-4.99-2.49-5.02-6.2
		c-0.03-3.64,1.83-6.15,4.63-6.24c3.37-0.11,5.39,2.09,5.5,5.96C506.91,269.67,504.97,272.14,501.7,272.21z"/>
	<path class="st1" d="M943.17,255.71c-5.32-0.14-9.06,4.07-9.07,10.18c-0.01,6.04,3.55,10.26,8.69,10.29
		c5.29,0.03,8.77-3.92,8.82-10.01C951.67,259.9,948.4,255.85,943.17,255.71z M942.77,272.21c-3.09-0.08-5.27-2.81-5.2-6.51
		c0.07-3.61,2.4-6.09,5.56-5.93c2.87,0.15,5.15,2.92,5.13,6.21C948.23,269.2,945.51,272.29,942.77,272.21z"/>
	<path class="st1" d="M763.28,255.73c-5.3-0.13-9.14,4.07-9.15,10.07c-0.01,6.17,3.06,9.85,8.64,10.3c5.2,0.42,8.8-3.86,8.89-9.86
		C771.76,260.01,768.45,255.86,763.28,255.73z M763.41,272.19c-3.02,0.18-5.15-2.16-5.31-5.82c-0.16-3.63,1.66-6.37,4.37-6.6
		c3.49-0.29,5.69,1.99,5.79,6C768.36,269.5,766.46,272.01,763.41,272.19z"/>
	<path class="st1" d="M799.25,255.7c-5.21-0.03-8.73,4.09-8.72,10.21c0.01,6.09,3.52,10.27,8.66,10.32
		c5.2,0.05,8.85-4.06,8.91-10.03C808.17,259.89,804.66,255.73,799.25,255.7z M799.16,272.21c-3.34-0.14-5.26-2.5-5.23-6.41
		c0.03-3.8,2.11-6.09,5.47-6.03c2.53,0.05,5.29,3.23,5.34,6.14C804.78,268.86,801.72,272.31,799.16,272.21z"/>
	<path class="st1" d="M701.58,264.75c-1.71-0.61-3.43-1.13-5.14-1.73c-0.76-0.26-1.42-0.82-1.21-2c0.16-0.89,0.81-1.15,1.48-1.21
		c1.59-0.16,3.12,0.24,4.6,0.94c1.39,0.66,2.18-0.06,2.56-1.8c0.41-1.89-0.76-2.02-1.61-2.28c-1.52-0.46-3.07-0.73-4.53-1.06
		c-1.03,0.18-1.96,0.33-2.88,0.51c-2.39,0.47-3.79,2.26-3.83,5.48c-0.04,3.12,1.33,4.69,3.61,5.19c1.54,0.34,3.05,0.88,4.55,1.43
		c0.81,0.29,1.72,0.72,1.57,2.14c-0.14,1.31-1.05,1.6-1.88,1.76c-2.02,0.4-3.95-0.41-5.8-1.25c-1.42-0.64-1.6,0.55-2.02,1.6
		c-0.59,1.46,0.13,1.95,1.02,2.32c3.12,1.31,6.24,2.04,9.48,0.62c2.02-0.88,3.18-2.49,3.23-5.35
		C704.82,267.13,703.62,265.47,701.58,264.75z"/>
	<path class="st1" d="M686.71,270.61c-0.59,0.04-1.17,0.53-1.75,0.82c-3.38,1.67-5.26,0.63-7.07-4.14c1.98,0,3.83-0.02,5.67,0.01
		c0.96,0.02,1.6-0.27,1.58-1.8c-0.02-1.48-0.64-1.87-1.6-1.86c-1.64,0.01-3.27,0-5.67,0c2.36-4.55,4.84-4.6,7.54-2.92
		c1.42,0.88,2.68,0.41,3.17-1.18c0.61-1.97-1.09-2.34-1.98-2.81c-2.06-1.08-4.27-1.33-6.45-0.6c-5.84,1.95-8.21,9.88-4.8,15.95
		c2.41,4.28,9.4,5.5,12.56,2.18c0.44-0.46,1.24-0.9,0.78-1.88C688.26,271.46,687.62,270.56,686.71,270.61z"/>
	<path class="st1" d="M851,271.36c-2.65,2.04-4.76,0.3-6.82-1.73c-0.44-0.43-0.76-1-0.6-1.74c0.2-0.92,0.86-0.57,1.32-0.59
		c1.46-0.04,2.92-0.01,4.38,0c0.99,0.01,1.88,0.01,1.79-1.9c-0.08-1.82-0.92-1.72-1.93-1.78c-1.8-0.11-3.68,0.59-5.52-0.6
		c3.39-3.88,3.68-4.02,7.84-2.14c1.48,0.67,2.68,0.1,3.09-1.53c0.42-1.65-1.01-2.22-1.93-2.58c-1.58-0.62-3.2-1.19-4.91-0.97
		c-6.6,0.83-9.97,8.43-6.84,15.48c1.88,4.23,6.49,5.91,11.18,4.05c1.17-0.46,2.89-0.99,2.53-2.8
		C854.14,270.32,852.51,270.19,851,271.36z"/>
	<path class="st1" d="M892.48,270.75c-0.59,0.23-1.14,0.62-1.72,0.87c-3.31,1.38-4.95,0.4-6.83-4.32c1.9,0,3.64-0.04,5.38,0.01
		c1.04,0.03,2.03-0.28,1.99-1.82c-0.04-1.42-0.96-1.92-2.04-1.85c-1.04,0.06-2.08,0.02-3.12,0c-0.58-0.01-1.38,0.4-1.58-0.69
		c-0.17-0.91,0.51-1.43,1-1.91c2.09-2.06,4.36-1.67,6.45-0.26c1.41,0.96,1.94-0.25,2.58-1.16c0.61-0.87-0.08-1.48-0.59-1.92
		c-3.3-2.85-6.71-2.35-10.12-0.44c-2.71,1.52-3.77,4.48-3.9,8.18c-0.15,3.91,0.89,7.18,3.54,8.95c3.4,2.26,6.97,2.73,10.41-0.11
		c0.47-0.39,1.32-0.94,0.81-1.8C894.21,271.61,893.66,270.28,892.48,270.75z"/>
	<path class="st1" d="M636.1,256.24c-0.52,0.25-0.84,1.45-1.14,2.29c-1.2,3.42-2.35,6.88-3.55,10.43c-2.46-2.89-3.22-6.48-4.18-9.85
		c-0.99-3.48-2.57-3.83-4.86-2.43c2.94,5.78,6.02,16.53,6.45,23.09c0.12,1.91,0.72,2.27,1.96,2.2c1.19-0.07,2.34,0.09,2.25-2.26
		c-0.28-7.68,2.91-13.62,5.68-19.8c0.46-1.02,1.68-2.39,0.66-3.56C638.57,255.42,637.14,255.75,636.1,256.24z"/>
	<path class="st1" d="M489.43,265.36c-0.27-5.14-3.58-9.28-7.57-9.64c-4.39-0.39-7.62,2.64-8.27,8.3c-0.37,3.23-0.14,6.57-0.2,9.87
		c-0.04,1.77,0.8,1.92,1.84,1.92c1.14,0.01,1.77-0.51,1.72-2.14c-0.04-1.37-0.01-2.75-0.01-4.12c0.01,0,0.02,0,0.03,0
		c0-1.51-0.03-3.02,0.01-4.53c0.1-3.85,1.88-5.29,4.54-5.21c2.57,0.07,3.69,2.2,3.81,5.33c0.1,2.47,0.08,4.95,0,7.41
		c-0.07,2.1,0.22,3.33,2.17,3.32c1.84,0,2.03-1.25,2-3.1C489.45,270.3,489.56,267.82,489.43,265.36z"/>
	<path class="st1" d="M611.27,263.29c-0.93-5.17-3.85-7.88-8.12-7.59c-3.95,0.27-6.92,3.47-7.35,8.36
		c-0.28,3.12-0.12,6.31-0.21,9.47c-0.07,2.28,1.06,2.22,2.27,2.29c1.44,0.08,1.79-0.9,1.73-2.54c-0.04-1.24-0.01-2.48-0.01-3.71
		c0-1.1-0.02-2.2,0.01-3.3c0.12-4.3,1.48-6.48,4.01-6.45c2.88,0.03,4.48,2.39,4.51,6.68c0.02,2.34,0.02,4.68-0.01,7.01
		c-0.02,1.45,0.26,2.34,1.56,2.32c1.22-0.02,2.03-0.37,1.98-2.27C611.52,270.14,611.88,266.68,611.27,263.29z"/>
	<path class="st1" d="M930.43,264.91c-0.33-4.94-2.53-8.24-5.79-9.04c-3.84-0.95-6.65,1.05-8.71,5.27
		c-2.01,4.1-1.18,8.46-1.33,12.75c-0.07,2.1,1.24,1.78,2.24,1.9c1.15,0.14,1.74-0.39,1.7-2.07c-0.07-2.75-0.12-5.52,0.01-8.26
		c0.17-3.45,1.4-5.7,4.31-5.64c2.73,0.05,4.08,1.8,4.24,5.68c0.05,1.24,0.01,2.48,0.01,3.72c0,1.24,0.02,2.48-0.01,3.72
		c-0.04,1.64,0.01,2.98,1.75,2.9c1.49-0.06,1.68-1.09,1.65-2.66C930.45,270.41,930.61,267.64,930.43,264.91z"/>
	<path class="st1" d="M469.12,269.14c0,0,0.01,0,0.01,0c0-0.69,0-1.37,0-2.06c-0.03-7.41-2.84-11.47-7.93-11.42
		c-4.88,0.04-7.9,4.45-7.93,11.57c-0.01,1.92,0.03,3.85-0.02,5.76c-0.05,1.7,0.09,2.89,1.78,2.84c1.51-0.04,2.34-0.48,2.25-2.76
		c-0.1-2.6-0.1-5.22,0.03-7.82c0.15-3.28,1.3-5.59,4.07-5.41c2.57,0.17,4.39,1.64,4.4,5.49c0.01,2.75,0.04,5.49,0.02,8.24
		c-0.01,1.56,0.51,2.18,1.68,2.23c1.2,0.05,1.71-0.54,1.65-2.14C469.08,272.17,469.12,270.65,469.12,269.14z"/>
	<path class="st1" d="M907.48,259.97c0.68,0.13,1.33,0.68,1.97,1.11c1.2,0.8,1.71-0.58,2.33-1.36c0.64-0.81,0.05-1.39-0.45-1.95
		c-2.06-2.34-6.7-2.77-9.52-0.83c-3.78,2.59-5.14,5.56-4.74,10.36c0.42,5.12,4.37,8.95,9.52,8.88c1.36,0.14,2.94-0.51,4.35-1.78
		c0.52-0.47,1.55-0.92,0.89-2.11c-0.45-0.8-1.01-1.94-2.01-1.54c-0.58,0.23-1.07,0.99-1.65,1.13c-2.19,0.55-4.41,0.82-6.01-1.87
		c-1.36-2.29-1.48-4.83-0.42-7.34C903.01,259.61,905.23,259.53,907.48,259.97z"/>
	<path class="st1" d="M526.97,255.97c-1.55-0.05-3.09-0.37-3.67,2.5c-0.5,2.5-1.39,4.88-2.23,7.24c-0.49,1.38-0.25,3.8-1.89,3.76
		c-1.34-0.03-1.18-2.25-1.62-3.5c-0.96-2.74-1.73-5.59-2.6-8.39c-0.78-2.51-2.46-1.55-3.8-1.55c-0.98,0-0.74,1.11-0.36,1.78
		c2.64,4.67,3.72,10.3,5.57,15.46c0.61,1.7,1.57,2.49,2.95,2.49c1.44,0.1,2.29-0.92,2.92-2.53c1.97-5.06,2.79-10.83,5.57-15.4
		C528.42,256.84,527.95,256,526.97,255.97z"/>
	<path class="st1" d="M559.56,259.81c0.87,0.08,1.59,0.48,2.3,1.12c1.28,1.14,1.87-0.54,2.59-1.33c0.55-0.61,0.03-1.1-0.36-1.6
		c-2.06-2.63-7.16-3.07-10.06-0.81c-3.67,2.86-5.16,6.98-4.19,11.56c0.82,3.89,4.82,7.36,8.81,7.46c1.62,0.14,3.32-0.48,4.84-1.79
		c0.5-0.43,1.66-0.78,0.96-2.01c-0.5-0.88-1.12-2.16-2.28-1.61c-0.48,0.23-0.86,0.87-1.34,1.03c-2.22,0.76-4.38,0.74-6.06-1.72
		c-1.5-2.2-1.56-4.76-0.59-7.29C555.3,259.9,557.37,259.62,559.56,259.81z"/>
	<path class="st1" d="M881.19,252.55c0.01-1.67-0.62-2.11-1.76-2.08c-2.3,0.06-4.59,0.02-6.89,0.02c-1.57,0-3.18-0.3-4.69,0.09
		c-1.43,0.38-4.13-2.05-4.08,1.95c0.04,3.86,2.75,1.87,4.16,1.88c2.25,0.02,2.83,1.03,2.74,3.84c-0.16,4.95-0.03,9.91-0.04,14.87
		c0,1.48,0,2.69,1.57,2.7c1.57,0.01,1.95-0.94,1.92-2.78c-0.06-3.58-0.02-7.16-0.02-10.74c0-7.03,0-7.06,5.26-7.7
		C880.45,254.47,881.18,254.26,881.19,252.55z"/>
	<path class="st1" d="M957.24,248.81c-1.11,0.11-2.42-0.22-2.42,2.12c0.01,7.56,0.01,15.12,0.02,22.68c0,2.24,1.28,2.09,2.41,2.23
		c1.37,0.17,1.83-0.69,1.81-2.41c-0.05-3.57-0.02-7.15-0.02-10.72c0-3.85-0.06-7.7,0.02-11.54
		C959.11,249.34,958.54,248.68,957.24,248.81z"/>
	<path class="st1" d="M448.96,263.12c0-3.43-0.06-6.86,0.02-10.28c0.04-1.72-0.3-2.64-1.71-2.39c-1.11,0.2-2.65-0.63-2.63,2.15
		c0.04,6.99,0.04,13.98-0.01,20.97c-0.01,2.29,1.09,2.16,2.3,2.25c1.38,0.1,2.12-0.29,2.06-2.42
		C448.88,269.98,448.96,266.55,448.96,263.12z"/>
	<path class="st1" d="M752.51,256.94c-4.06-3.73-10.23-0.19-10.83,6.27c-0.16,1.76-0.02,3.56-0.02,5.34c-0.02,0-0.04,0-0.06,0
		c0,1.64,0.02,3.29-0.01,4.93c-0.02,1.38,0.14,2.38,1.49,2.35c1.21-0.03,2.05-0.36,2.04-2.21c0-2.06,0.01-4.11,0.01-6.17
		c-0.02-7.61,0.32-8.07,5.94-6.89c1.31,0.27,1.67-0.79,2.15-1.73C753.71,257.87,753.02,257.4,752.51,256.94z"/>
	<path class="st1" d="M729.07,265c-0.07,2.88,0.02,5.76-0.02,8.64c-0.02,1.59,0.53,2.17,1.7,2.17c1.17,0,1.7-0.52,1.67-2.15
		c-0.06-2.88-0.06-5.76,0.01-8.64c0.1-3.7,2.07-6.1,4.67-5c2.06,0.87,3.18,0.06,4.42-1.92c-0.76-0.55-1.44-1.14-2.17-1.56
		C734.05,253.5,729.25,257.44,729.07,265z"/>
	<path class="st1" d="M1002.96,255.87c-1.98-0.08-1.88,1.42-1.87,3.14c0.02,2.33,0.01,4.65,0,6.98c0,2.33,0.07,4.66-0.03,6.98
		c-0.09,2.07,0.43,2.92,2.1,2.91c1.67,0,2.14-0.84,2.1-2.93c-0.09-4.65-0.1-9.31,0.01-13.95
		C1005.32,256.68,1004.71,255.94,1002.96,255.87z"/>
	<path class="st1" d="M776.81,248.83c-1.63-0.01-1.53,1.24-1.52,2.67c0.01,7.15,0,14.3,0.01,21.46c0,1.32-0.26,2.82,1.42,2.87
		c1.56,0.05,1.97-0.91,1.94-2.76c-0.05-3.57-0.02-7.15-0.01-10.73c0-3.58-0.05-7.15,0.02-10.73
		C778.7,249.79,778.41,248.84,776.81,248.83z"/>
	<path class="st1" d="M783.56,249.06c-0.03,8.87-0.07,17.75-0.1,26.62c0,0,0,0,0,0c0,0,0,0,0,0c0.93,1.35,1.79,0.49,2.65-0.16
		c0.01-8.82,0.01-17.64,0.02-26.46C785.27,249.06,784.42,249.06,783.56,249.06z"/>
	<polygon class="st1" points="786.13,249.06 786.13,249.06 786.13,249.06 	"/>
	<path class="st1" d="M569.72,255.83c-1.33,0.02-1.86,0.65-1.84,2.42c0.05,5.06,0.06,10.13,0.02,15.19
		c-0.01,1.68,0.41,2.54,1.76,2.58c1.39,0.05,1.79-0.82,1.75-2.51c-0.07-2.46-0.02-4.93-0.02-7.39c0-2.6-0.07-5.2,0.02-7.8
		C571.47,256.62,571.14,255.81,569.72,255.83z"/>
	<path class="st1" d="M588.08,249.69c-3.89-3.1-3.76,2.54-6.22,3.69C585.43,255.28,586.37,252.05,588.08,249.69z"/>
	<path class="st1" d="M1006.92,249.17c-0.77-0.71-1.98-1.13-2.71,0.45c-0.62,1.34-1.17,2.73-2.33,3.63c2.19,1.94,3.4,0.35,4.48-1.58
		C1006.76,250.94,1008.06,250.21,1006.92,249.17z"/>
	<polygon class="st1" points="786.13,249.06 786.13,249.06 786.13,249.06 	"/>
	<path class="st1" d="M786.13,249.06c0.44,8.82,0.48,17.64-0.02,26.46c0.78-0.4,0.63-1.31,0.63-2.09c0.01-7.43,0.01-14.86,0-22.28
		C786.74,250.37,786.92,249.45,786.13,249.06z"/>
	<path class="st1" d="M783.56,249.06c-1.28,2.19-0.58,4.73-0.54,7.05c0.12,6.52-0.66,13.08,0.44,19.56
		C783.24,266.8,783.04,257.93,783.56,249.06z"/>
	<path class="st1" d="M569.84,248.99c-1.09-0.17-1.84,0.62-1.96,2.03c-0.13,1.61,0.55,2.63,1.78,2.71c1.1,0.07,1.71-0.79,1.83-2.27
		C571.48,250.04,570.9,249.15,569.84,248.99z"/>
	<path class="st0" d="M812.91,176.2L812.91,176.2c-0.48,1.23-0.94,2.48-1.57,3.59C813.14,179.57,813.16,177.98,812.91,176.2z"/>
</g>
<g>
	<path class="st0" d="M146.43,235.69c-0.03-4.92-0.56-9.62-2.41-14.41c-3.61-9.35-10.01-14.65-19.72-16.11
		c-8.31-1.25-16.18,0.11-22.61,5.79c-5.56,4.92-8.49,11.48-8.59,18.92c-0.21,16.69-0.12,33.39-0.24,50.09
		c-0.01,1.59,0.67,2.48,1.84,3.19c5.53,3.38,11.12,6.63,17.01,9.37c10.25,4.76,21.03,7.71,32.04,9.95c2,0.41,2.77-0.05,2.74-2.32
		c-0.11-11.63-0.05-23.27-0.05-34.9C146.44,255.4,146.48,245.55,146.43,235.69z"/>
	<path class="st0" d="M191.92,301.76c7.3-1.48,14.43-3.47,21.37-6.08c9.33-3.49,17.97-8.38,26.37-13.69
		c1.98-1.25,2.94-2.74,2.91-5.34c-0.17-13.86-0.08-27.72-0.07-41.58c0-3.82-0.21-7.6-1.13-11.35c-1.35-5.5-4.22-10.19-8.52-13.57
		c-6.11-4.8-13.46-6.05-21.1-5.16c-6.11,0.71-11.69,2.92-15.68,7.77c-4.29,5.2-6.9,11.25-6.96,18.11
		c-0.09,11.37-0.02,22.75-0.02,34.12c-0.03,0-0.06,0-0.08,0c0,2.22,0,4.44,0,6.66c0,9.15,0.07,18.3-0.04,27.46
		C188.94,301.43,189.15,302.32,191.92,301.76z"/>
	<path class="st1" d="M203.45,83.72c-5.81-1.66-11.72-2.8-17.59-4.14c-2.24,0.3-4.42-0.84-7.29-0.33c2.77,1.45,5.07,2.52,7.24,3.83
		c10.67,6.47,19.72,14.82,27.35,24.62c5.14,6.6,9.34,13.89,13.03,21.38c3.47,7.05,5.9,14.56,8.16,22.09
		c1.46,4.84,2.25,9.85,2.99,14.85c0.2,1.36,0.71,1.85,2.05,2.21c7.51,2.01,14.51,5.3,20.66,9.98c9.77,7.44,16.54,17.24,20.85,28.71
		c1.6,4.26,2.44,8.76,3.45,13.27c1.11-3,2.15-5.96,2.77-9.01c2.23-10.98,1.73-22.08,1.26-33.17c-1.06-1.36-0.44-2.99-0.72-4.47
		c0,0,0,0,0,0c-1.2-1.25-1.08-2.79-0.95-4.33c-0.25-3.38-2.03-6.3-2.86-9.53c-1.22-4.77-2.66-9.55-5.23-13.86
		c-2.58-4.16-4.54-8.64-7.28-12.76c-3.49-5.25-7.35-10.19-11.52-14.82c-2.3-2.56-4.84-5.04-7.46-7.39
		c-3.88-3.49-8.31-6.28-12.02-9.95c-4.38-2.53-8.71-5.16-13.15-7.57C219.64,89.22,211.73,86.09,203.45,83.72z"/>
	<path class="st1" d="M49.35,226.24c0.71-0.33,0.44-1.58,1.49-1.59c0,0,0,0,0,0c0.95-10.83,3.93-21.01,9.69-30.29
		c1.15-1.86,2.47-3.59,3.81-5.33c6.88-8.98,15.68-15.16,26.22-18.99c1.03-0.37,1.19-1.09,1.35-2.03c1.46-8.8,2.73-17.63,6.31-25.96
		c2.26-5.25,3.93-10.7,6.64-15.82c4.07-7.68,8.53-14.98,14.05-21.71c3.38-4.12,6.99-8.03,10.98-11.47c2.77-2.39,5.58-4.82,8.71-6.86
		c3.35-2.18,6.9-4.05,10.62-6.44c-2.22-0.42-3.83,0.7-5.52,0.22c-1.77,1.33-4.04,1.14-5.99,1.52c-10.19,1.98-19.81,5.56-29.08,10.03
		c-6,2.89-11.9,6.06-17.07,10.37c-0.59,0.49-1.4,0.7-2.11,1.05c-0.87,0.76-1.69,1.57-2.6,2.26c-9.34,7.04-17.26,15.52-23.94,25.02
		c-4.13,5.87-7.91,12.1-10.48,18.91c-3.25,6.48-5.03,13.44-6.69,20.44c-0.46,1.94,0.25,4.09-1.07,5.88c0,0,0,0,0,0
		c-0.08,1.42-0.11,2.84-0.25,4.25C42.81,195.55,44.4,211.07,49.35,226.24z"/>
	<path class="st0" d="M185.82,57.21c0.1,7.46,0.04,14.91,0.04,22.37c2.6-1.02,5.1,0.22,7.45,0.78c5.84,1.38,11.72,2.7,17.39,4.79
		c8.76,3.23,17.2,7.06,24.98,12.27c1.61,1.08,3.49,1.78,4.65,3.45c0.03-7.63,0.05-15.27,0.08-22.9c0-0.91,0.01-1.82-0.89-2.35
		c-4.29-2.54-8.47-5.31-12.92-7.56c-12.16-6.15-24.98-10.43-38.44-12.73C186.45,55.04,185.79,55.27,185.82,57.21z"/>
	<path class="st0" d="M100.44,95.14c11.54-6.77,23.81-11.69,36.99-14.28c2.09-0.41,4.11-1.11,6.27-0.91
		c0.06-7.54,0.11-15.08,0.21-22.62c0.02-1.43-0.61-1.54-1.82-1.36c-6.4,0.97-12.68,2.62-18.7,4.83
		c-11.72,4.3-23.01,9.56-32.92,17.39c-0.84,0.66-1.13,1.17-1.13,2.08c0.04,7.55,0.07,15.09,0.1,22.64c0,0,0,0,0,0l0,0
		C92.41,99.34,96.57,97.41,100.44,95.14z"/>
	<path class="st1" d="M165.99,56.22c-9.68,0.16-14.84,5.97-15.07,13.55c-0.22,7.07,5.15,13.48,14.53,13.72
		c7.89,0.48,15.01-6.5,15.21-13.2C180.88,63.06,173.76,56.1,165.99,56.22z"/>
	<path class="st1" d="M199.21,156.78c9.21-1.54,18.19-3.95,27.05-6.84c0.74-0.24,1.81-0.25,1.76-1.59c-0.12-3.2-1.34-4.08-4.31-2.99
		c-16.32,6.01-33.26,8.77-50.56,9.35c-23.3,0.78-46.04-2.29-67.87-10.85c-1.55-0.61-2.48-0.48-2.85,1.36
		c-0.29,1.41-1.34,2.67,1.02,3.52c20.24,7.32,41.16,10.64,58.1,10.88C177.21,159.69,188.24,158.62,199.21,156.78z"/>
	<path class="st1" d="M113.42,122.06c-0.95,1.81,1.04,1.72,1.87,2.05c16.21,6.28,33.01,9.52,50.41,9.6
		c16.85-0.03,33.16-3.05,48.94-8.9c0.89-0.33,2.78-0.35,1.71-2.14c-0.72-1.2-0.67-3.45-3.43-2.39c-7.53,2.9-15.29,5.07-23.26,6.5
		c-15.98,2.87-31.95,2.82-47.93-0.04c-8.48-1.52-16.73-3.94-24.71-7.15C114.17,118.43,114.1,120.75,113.42,122.06z"/>
	<path class="st1" d="M130.15,100.41c-0.39,0.29-0.96,0.72-0.66,1.3c0.16,0.29,0.73,0.41,1.14,0.51c11.58,2.9,23.3,4.76,34.26,4.61
		c7.25,0.04,13.47-0.32,19.61-1.29c4.9-0.77,9.75-1.88,14.63-2.86c0.64-0.13,1.86-0.35,0.9-1.18c-1.46-1.26-2.48-3.32-5.2-2.71
		c-19.62,4.42-39.29,4.33-58.85-0.25C133.23,97.89,131.86,99.14,130.15,100.41z"/>
	<path class="st0" d="M281.34,149.8c1.72,4.72,3.39,9.46,4.55,14.36c0.39,1.67,1.83,3.05,1.49,4.96c-0.04,0.35-0.05,0.69-0.04,1.02
		c0.34,0.71,0.41,1.48,0.38,2.28c0.13,0.41,0.27,0.82,0.44,1.22c0.18,1.45-0.06,2.91,0.21,4.36c0.73-3.04,0.77-6.15,0.83-9.24
		c0.17-8.99-0.72-17.88-2.61-26.68c-1.61-0.84-1.49-2.35-1.48-3.81c-0.9-3.06-1.81-6.11-2.71-9.17c-0.84,3.28-1.12,6.45-1.67,9.57
		c-0.43,2.44-0.29,5.1-2.13,7.14C280.47,146.48,280.79,148.29,281.34,149.8z"/>
	<path class="st1" d="M140.56,41.32c0.62,0.06,1.24,0.08,1.86,0.08c15.28,0,30.56,0,45.85,0c1.71,0,3.89-0.02,3.86-2.11
		c-0.03-2.08-2.24-2.01-3.93-2.01c-7.64,0-15.28,0-22.92,0c-7.2,0-14.39,0-21.59,0c-1.07,0-2.14-0.05-3.19,0.08
		c-1.1,0.14-1.76,0.85-1.72,2.01C138.81,40.5,139.4,41.21,140.56,41.32z"/>
	<path class="st1" d="M186.77,45.68c-0.04-1.8-1.5-1.89-2.92-1.89c-6.12,0.02-12.24,0.01-18.36,0.01c-2.84,0-5.68,0-8.51,0
		c-3.72,0.01-7.45-0.01-11.17,0.06c-1.14,0.02-2.11,0.52-2.12,1.88c-0.01,1.25,0.96,1.58,1.94,1.79c0.43,0.09,0.88,0.11,1.32,0.12
		c12.33,0.01,24.65,0,36.98,0.01C185.35,47.65,186.8,47.48,186.77,45.68z"/>
	<path class="st1" d="M183.48,89.06c-2.59-1.73-4.92-4-8.22-3.83c-6.3,0.32-12.63,0.61-18.88,0.01c-4.33-0.41-7.5,1.25-11.35,4.07
		C158.28,90.57,170.85,90.7,183.48,89.06z"/>
	<path class="st0" d="M45.83,166.07c1.37-5.37,2.57-10.76,5.33-15.65c0.31-0.55,0.68-1.02,1.26-1.31
		c-1.79-4.07-2.93-8.36-4.01-12.71c-3.45,12.84-5.41,25.76-3.75,39.03c0,0,0,0,0,0C45.26,172.35,45.04,169.18,45.83,166.07z"/>
	<path class="st1" d="M151.29,53.27c0.82,0.55,1.81,0.64,2.81,0.63c3.82-0.03,7.64-0.01,11.45-0.01c3.64,0,7.28,0.02,10.92-0.01
		c1.58-0.01,3.56,0.2,3.51-2.14c-0.04-2.11-1.87-2-3.4-2c-7.55,0-15.09,0.01-22.64-0.01c-1.01,0-1.99,0.12-2.76,0.73
		C150.05,51.38,150.07,52.45,151.29,53.27z"/>
	<path class="st2" d="M286.59,142.08c0.44-1.63-0.37-2.78-1.48-3.81v0l0,0C285.55,139.56,285.97,140.86,286.59,142.08z"/>
	<path class="st2" d="M49.35,226.24c-0.05,0.58,0.05,1.08,0.76,1.11c0.57,0.03,0.75-0.4,0.77-0.86c0.03-0.61-0.02-1.23-0.04-1.84
		c0,0,0,0,0,0C50.17,225.01,50.62,226.43,49.35,226.24z"/>
	<path class="st2" d="M287.72,172.43c-0.23-0.74-0.37-1.5-0.38-2.28c-0.15-0.33-0.36-0.64-0.65-0.94c0.63,1.37,0.37,2.94,0.95,4.33
		c0,0,0,0,0,0C287.67,173.16,287.7,172.79,287.72,172.43z"/>
	<g>
		<g>
			<path class="st1" d="M91.38,126.46c1.93,0,1.93-3,0-3C89.45,123.46,89.45,126.46,91.38,126.46L91.38,126.46z"/>
		</g>
	</g>
</g>
</svg>
